Coordinates
version=1
nRows=11
nColumns=63
inDegrees=yes

Units are S.I. units (second, meters, Newtons, ...)
If the header above contains a line with 'inDegrees', this indicates whether rotational values are in degrees (yes) or radians (no).

endheader
time	pelvis_tilt	pelvis_list	pelvis_rotation	pelvis_tx	pelvis_ty	pelvis_tz	hip_flexion_r	hip_adduction_r	hip_rotation_r	knee_angle_r	knee_angle_r_beta	ankle_angle_r	subtalar_angle_r	mtp_angle_r	hip_flexion_l	hip_adduction_l	hip_rotation_l	knee_angle_l	knee_angle_l_beta	ankle_angle_l	subtalar_angle_l	mtp_angle_l	L5_S1_Flex_Ext	L5_S1_Lat_Bending	L5_S1_axial_rotation	L4_L5_Flex_Ext	L4_L5_Lat_Bending	L4_L5_axial_rotation	L3_L4_Flex_Ext	L3_L4_Lat_Bending	L3_L4_axial_rotation	L2_L3_Flex_Ext	L2_L3_Lat_Bending	L2_L3_axial_rotation	L1_L2_Flex_Ext	L1_L2_Lat_Bending	L1_L2_axial_rotation	L1_T12_Flex_Ext	L1_T12_Lat_Bending	L1_T12_axial_rotation	Abs_r3	Abs_r2	Abs_r1	Abs_t1	Abs_t2	neck_flexion	neck_bending	neck_rotation	arm_flex_r	arm_add_r	arm_rot_r	elbow_flex_r	pro_sup_r	wrist_flex_r	wrist_dev_r	arm_flex_l	arm_add_l	arm_rot_l	elbow_flex_l	pro_sup_l	wrist_flex_l	wrist_dev_l
      1.37288136	     -5.45843727	     -2.00622146	     98.81960880	      0.06862701	      0.52492861	      0.83596929	      1.18000565	     -2.64097459	    -12.24563732	      6.40276500	      0.11174933	     30.66951215	     17.10772978	      0.00000000	      2.85958489	      2.21397340	      0.27429967	      6.37129840	      0.11120013	     24.06398889	     -0.24006096	      0.00000000	      0.05229247	     -0.39117839	      0.58484437	      0.09711235	     -0.52026726	      0.62139714	      0.08591131	     -0.95111113	      0.62139714	      0.05976507	     -0.95111113	      0.51173882	      0.04855879	     -0.79769097	      0.47518605	      0.02987992	     -0.60593532	      0.43863328	      0.37351991	     -4.42508817	      3.25272892	      0.00000000	      0.00000000	      7.72503349	      5.32939713	     -3.69280636	   -274.95709641	    -98.36325228	   -258.09286559	      7.93102649	     34.72810675	     -4.86482941	      0.68264166	   -131.38599023	   -108.29600373	    100.90095306	     27.14913660	      4.71814025	    -15.13208987	      4.53932503
      1.38983051	     -5.54611754	     -2.04324573	     98.76657020	      0.06884534	      0.52482876	      0.83555737	      1.16836433	     -2.73751085	    -12.25898202	      6.48964813	      0.11326573	     30.59903665	     17.22221991	      0.00000000	      2.82255097	      2.31998870	      0.59914434	      6.29198748	      0.10981590	     23.83776757	     -0.88625306	      0.00000000	      0.06001216	     -0.39826108	      0.49685726	      0.11144857	     -0.52968723	      0.52791083	      0.09859397	     -0.96833198	      0.52791083	      0.06858789	     -0.96833198	      0.43475010	      0.05572729	     -0.81213399	      0.40369652	      0.03429095	     -0.61690641	      0.37264294	      0.42866082	     -4.50520895	      2.76337100	      0.00000000	      0.00000000	      8.21119210	      5.68986190	     -2.96498638	   -272.87240916	    -97.85936591	   -259.63445018	      7.49769531	     35.61319832	     -4.57571788	      1.83474045	   -137.40514099	   -106.83474309	     99.96563805	     26.33922708	      3.98687273	    -15.02438802	      6.88662462
      1.40677966	     -5.65235082	     -2.10097754	     98.68780951	      0.06941538	      0.52459455	      0.83532646	      1.24000294	     -2.84964260	    -12.27984563	      6.69157008	      0.11678993	     30.58023187	     17.31027838	      0.00000000	      2.82342209	      2.40310033	      0.52625894	      6.26332061	      0.10931557	     23.64200472	     -1.04206997	      0.00000000	      0.06022033	     -0.41147449	      0.52479749	      0.11183517	     -0.54726107	      0.55759734	      0.09893598	     -1.00045908	      0.55759734	      0.06882582	     -1.00045908	      0.45919781	      0.05592060	     -0.83907878	      0.42639796	      0.03440990	     -0.63737399	      0.39359812	      0.43014780	     -4.65468174	      2.91876622	      0.00000000	      0.00000000	      9.02894678	      5.93020107	     -3.05830479	   -272.31626176	    -98.29872379	   -260.14248342	      7.41818408	     35.45576530	     -4.53643586	      3.25536998	   -138.76954308	   -105.81510969	    100.45185021	     25.16909976	      3.82556370	    -15.37494333	      8.78328509
      1.42372881	     -5.96310146	     -2.16633932	     98.55592086	      0.07008070	      0.52456860	      0.83509984	      1.35660728	     -3.20275633	    -12.24360456	      7.01312550	      0.12240213	     30.68725042	     17.44672034	      0.00000000	      2.80484828	      2.69454991	      0.59570510	      6.29202429	      0.10981654	     23.31195079	     -1.33417416	      0.00000000	      0.05615354	     -0.45112143	      0.51997413	      0.10428273	     -0.59999150	      0.55247252	      0.09225465	     -1.09685664	      0.55247252	      0.06417788	     -1.09685664	      0.45497737	      0.05214417	     -0.91992682	      0.42247898	      0.03208613	     -0.69878709	      0.38998060	      0.40109910	     -5.10317582	      2.89194014	      0.00000000	      0.00000000	      9.41787404	      6.19713300	     -3.23217512	   -271.31234688	    -98.40561486	   -260.71554824	      7.58699872	     35.39680635	     -4.60247729	      4.59920273	   -141.49782793	   -104.55717418	     99.86003278	     23.91684306	      3.45220877	    -14.81312529	     11.68581196
      1.44067797	     -5.70686505	     -2.14787189	     98.51571436	      0.06921698	      0.52489871	      0.83509943	      1.41920282	     -3.01585291	    -12.31280421	      7.18501884	      0.12540224	     30.54865608	     17.54198654	      0.00000000	      2.70591840	      2.57111095	      2.26193357	      6.15757720	      0.10747000	     22.49868901	     -3.91216395	      0.00000000	      0.05966247	     -0.39423027	      0.31521852	      0.11079917	     -0.52432627	      0.33491967	      0.09801947	     -0.95853149	      0.33491967	      0.06818823	     -0.95853149	      0.27581620	      0.05540257	     -0.80391438	      0.25611505	      0.03409113	     -0.61066270	      0.23641389	      0.42616304	     -4.45961171	      1.75315083	      0.00000000	      0.00000000	      9.55018214	      5.96160889	     -1.66892534	   -270.64548491	    -96.56409326	   -270.25900786	      6.97393770	     45.96024777	     -4.81555814	      5.07218006	   -152.56090707	   -103.87358966	     92.31210628	     23.90956245	      2.74917450	    -13.79156834	     13.83433201
      1.45762712	     -5.76084720	     -2.13893832	     98.55361700	      0.06964497	      0.52525452	      0.83542204	      1.46556441	     -3.07014128	    -12.29741807	      7.28512491	      0.12714942	     30.54211764	     17.53708961	      0.00000000	      2.71965428	      2.58467645	      2.28445956	      6.28631879	      0.10971696	     22.10876549	     -3.85662658	      0.00000000	      0.04455602	     -0.40187860	      0.31715464	      0.08274498	     -0.53449854	      0.33697681	      0.07320108	     -0.97712763	      0.33697681	      0.05092307	     -0.97712763	      0.27751031	      0.04137472	     -0.81951084	      0.25768815	      0.02545931	     -0.62250995	      0.23786598	      0.31825917	     -4.54613112	      1.76391898	      0.00000000	      0.00000000	      9.68031091	      6.01247937	     -1.85427377	   -270.76489586	    -96.57663354	   -270.19167783	      7.01314896	     46.06514419	     -4.79607761	      4.95608926	   -152.57894750	   -103.71843118	     92.19086484	     23.78769044	      2.70248607	    -13.79958414	     13.85528931
      1.47457627	     -5.94422023	     -2.16518425	     98.64098050	      0.07002542	      0.52540365	      0.83584883	      1.66974687	     -3.30334899	    -12.48059602	      7.63896559	      0.13332510	     30.84652573	     17.56988283	      0.00000000	      2.79122650	      2.76749551	      2.67917868	      6.47565506	      0.11302150	     21.73087182	     -4.37732249	      0.00000000	      0.02892041	     -0.42656144	      0.24714553	      0.05370809	     -0.56732672	      0.26259213	      0.04751334	     -1.03714150	      0.26259213	      0.03305313	     -1.03714150	      0.21625234	      0.02685549	     -0.86984410	      0.20080574	      0.01652512	     -0.66074368	      0.18535915	      0.20657557	     -4.82534837	      1.37454930	      0.00000000	      0.00000000	      9.97889304	      5.85746624	     -2.08978436	   -272.16956396	    -96.06011763	   -269.23132074	      6.89787122	     47.27453652	     -4.71539716	      4.04570577	   -152.79639115	   -103.36128229	     90.76259650	     23.72474354	      2.75456280	    -14.13731960	     13.82326819
      1.49152542	     -5.99149414	     -2.16718071	     98.81003325	      0.07001702	      0.52574235	      0.83641189	      1.82428637	     -3.39409533	    -12.62933551	      7.86557453	      0.13728017	     31.06116646	     17.59412806	      0.00000000	      2.81953745	      2.85734730	      3.74161582	      6.53749014	      0.11410073	     21.14798867	     -5.56874782	      0.00000000	      0.01466320	     -0.42813263	      0.15150767	      0.02723104	     -0.56941639	      0.16097690	      0.02409018	     -1.04096167	      0.16097690	      0.01675858	     -1.04096167	      0.13256921	      0.01361625	     -0.87304805	      0.12309998	      0.00837856	     -0.66317744	      0.11363075	      0.10473781	     -4.84312189	      0.84264020	      0.00000000	      0.00000000	      9.96587657	      5.54416746	     -1.83411998	   -273.51095169	    -95.39994017	   -270.09163619	      6.82048982	     47.44259960	     -4.66721129	      3.40482082	   -153.42628825	   -103.55276220	     89.32934666	     24.55355176	      2.76197160	    -15.33064721	     12.56504206
      1.50847458	     -6.06377884	     -2.19276405	     98.95485306	      0.07019499	      0.52609895	      0.83692553	      2.02957456	     -3.49909727	    -12.70313396	      8.14007972	      0.14207119	     31.28803417	     17.53179226	      0.00000000	      2.91092597	      2.92861649	      4.01631982	      6.66067812	      0.11625076	     20.89316294	     -5.63481087	      0.00000000	      0.00626321	     -0.43392401	      0.07142318	      0.01163140	     -0.57711893	      0.07588713	      0.01028983	     -1.05504283	      0.07588713	      0.00715822	     -1.05504283	      0.06249528	      0.00581602	     -0.88485783	      0.05803134	      0.00357880	     -0.67214829	      0.05356739	      0.04473747	     -4.90863515	      0.39723431	      0.00000000	      0.00000000	      9.65669627	      5.15732579	     -1.40815720	   -273.74242897	    -94.86693204	   -270.34086774	      6.76480449	     47.42410343	     -4.77247052	      2.84366034	   -153.10870162	   -103.87051551	     88.85803428	     25.31842941	      2.87125657	    -15.42595021	     10.72554254
      1.52542373	     -6.09021870	     -2.17380342	     99.30587561	      0.06986885	      0.52651498	      0.83736773	      2.08316022	     -3.54568343	    -13.00504213	      8.26135135	      0.14418778	     31.45824467	     17.57380857	      0.00000000	      2.98183836	      2.98439604	      4.69318453	      6.80549343	      0.11877827	     20.67332003	     -5.99007604	      0.00000000	     -0.00624254	     -0.43069564	     -0.02590134	     -0.01159302	     -0.57282520	     -0.02752017	     -0.01025587	     -1.04719338	     -0.02752017	     -0.00713460	     -1.04719338	     -0.02266367	     -0.00579682	     -0.87827455	     -0.02104484	     -0.00356699	     -0.66714755	     -0.01942600	     -0.04458985	     -4.87211522	     -0.14405547	      0.00000000	      0.00000000	      9.17999413	      4.94883749	     -0.86220622	   -274.16524257	    -94.54135177	   -271.24214351	      6.70491488	     47.28949281	     -4.74983578	      2.70917691	   -152.72008791	   -104.34693770	     88.91266266	     26.45289714	      2.73080752	    -16.84381442	      8.38187776
      1.54237288	     -6.07002836	     -2.23299868	     99.57917119	      0.06943589	      0.52674582	      0.83784833	      2.28668231	     -3.57331129	    -13.22869906	      8.50207637	      0.14838923	     31.66600521	     17.56901377	      0.00000000	      3.18176374	      2.96170209	      4.33780067	      7.01363747	      0.12241107	     20.87818957	     -4.93318916	      0.00000000	     -0.00693329	     -0.41878804	     -0.09307675	     -0.01287582	     -0.55698809	     -0.09889405	     -0.01139071	     -1.01824124	     -0.09889405	     -0.00792406	     -1.01824124	     -0.08144216	     -0.00643826	     -0.85399257	     -0.07562486	     -0.00396168	     -0.64870267	     -0.06980756	     -0.04952381	     -4.73741406	     -0.51766497	      0.00000000	      0.00000000	      8.64031973	      4.64753140	     -0.26956057	   -273.68630292	    -94.47472239	   -274.21259575	      6.94275878	     49.85428188	     -5.06410740	      3.25288753	   -152.67273021	   -104.82394005	     88.99070182	     27.26583633	      2.51397451	    -17.61047708	      6.73089293
